<svg width="24" height="24" viewBox="0 0 24 24" fill="none" xmlns="http://www.w3.org/2000/svg">
<g clip-path="url(#clip0_433_133)">
<path d="M23.4686 22.2757L17.0966 15.9037C18.6279 14.0654 19.3915 11.7076 19.2285 9.32069C19.0656 6.93378 17.9887 4.70157 16.2219 3.08842C14.4551 1.47528 12.1343 0.605403 9.74249 0.65975C7.35064 0.714097 5.07182 1.68849 3.38009 3.38021C1.68836 5.07194 0.713975 7.35076 0.659628 9.74261C0.605281 12.1345 1.47516 14.4552 3.0883 16.222C4.70145 17.9888 6.93366 19.0657 9.32057 19.2286C11.7075 19.3916 14.0653 18.628 15.9036 17.0968L22.2756 23.4688L23.4686 22.2757ZM2.3749 9.96877C2.3749 8.46687 2.82026 6.9987 3.65468 5.74991C4.48909 4.50112 5.67507 3.52781 7.06265 2.95306C8.45022 2.37831 9.97707 2.22793 11.4501 2.52093C12.9232 2.81394 14.2762 3.53717 15.3382 4.59918C16.4002 5.66118 17.1235 7.01426 17.4165 8.4873C17.7095 9.96035 17.5591 11.4872 16.9844 12.8748C16.4096 14.2623 15.4363 15.4483 14.1875 16.2827C12.9387 17.1172 11.4706 17.5625 9.96865 17.5625C7.95535 17.5603 6.02514 16.7595 4.60152 15.3359C3.1779 13.9123 2.37713 11.9821 2.3749 9.96877Z" fill="#121212"/>
</g>
<defs>
<clipPath id="clip0_433_133">
<rect width="24" height="24" fill="white"/>
</clipPath>
</defs>
</svg>
