<svg width="150" height="25" viewBox="0 0 150 25" fill="none" xmlns="http://www.w3.org/2000/svg">
<path d="M16.855 9.19948C16.855 10.8497 15.5123 12.188 13.8568 12.188C12.2013 12.188 10.8586 10.8497 10.8586 9.19948C10.8586 7.54929 12.2013 6.21095 13.8568 6.21095C15.5123 6.21095 16.855 7.54929 16.855 9.19948Z" fill="#EF3D24"/>
<path fill-rule="evenodd" clip-rule="evenodd" d="M12.1882 0C5.46189 0 0 5.44432 0 12.149C0 18.8537 5.46189 24.2981 12.1882 24.2981C18.9146 24.2981 24.3765 18.8537 24.3765 12.149C24.3765 5.44432 18.9146 0 12.1882 0ZM12.1882 4.32687C16.516 4.32687 20.0356 7.83515 20.0356 12.149C20.0356 16.4629 16.516 19.9712 12.1882 19.9712C7.86043 19.9712 4.34084 16.4629 4.34084 12.149C4.34084 7.83515 7.86043 4.32687 12.1882 4.32687Z" fill="#EF3D24"/>
<path d="M85.9824 10.8107C85.3698 8.97858 82.9712 8.01705 78.9302 8.01705C74.0028 8.01705 71.2914 9.52431 71.3044 12.279C71.3044 15.0206 74.0158 16.5409 78.9432 16.5409C82.9843 16.5409 85.3046 15.5793 85.9564 13.6693L82.9582 13.0976C82.6584 14.0201 81.42 14.4359 78.9432 14.4359C75.6322 14.4359 74.1853 13.7732 74.1853 12.279C74.1853 10.7717 75.6452 10.122 78.9432 10.122C81.3548 10.122 82.5932 10.5248 82.9452 11.4084L85.9824 10.8107Z" fill="#EF3D24"/>
<path fill-rule="evenodd" clip-rule="evenodd" d="M42.3394 8.17299H29.8383V16.359H39.9018C41.8832 16.359 43.0434 15.4104 43.0434 13.8122C43.0434 12.214 41.8702 11.2655 39.9018 11.2655H32.5367V10.161H42.3394V8.17299ZM32.5367 14.4489V13.2015H39.4064C40.0061 13.2015 40.2798 13.3964 40.2798 13.8252C40.2798 14.267 40.0061 14.4489 39.4064 14.4489H32.5367Z" fill="#EF3D24"/>
<path fill-rule="evenodd" clip-rule="evenodd" d="M44.6337 8.17299H53.7455C56.2614 8.17299 57.7605 9.34241 57.7605 11.3174C57.7605 13.2925 56.2744 14.4619 53.7455 14.4619H47.4494V16.372H44.6337V8.17299ZM47.4494 10.2909V12.3699H53.3023C54.4104 12.3699 54.8927 12.0581 54.8927 11.3434C54.8927 10.6028 54.4104 10.2909 53.3023 10.2909H47.4494Z" fill="#EF3D24"/>
<path d="M63.3658 13.9681L57.4998 8.17299H60.9151L65.0344 12.201L68.7104 8.17299H72.0344L64.552 16.372H61.1498L63.3658 13.9681Z" fill="#EF3D24"/>
<path d="M90.0886 8.17299H87.273V16.372H90.0886V13.2535H98.7051V16.372H101.521V8.17299H98.7051V11.1355H90.0886V8.17299Z" fill="#EF3D24"/>
<path d="M106.409 8.17299H103.593V16.372H106.409L114.726 10.7847V16.372H117.555V8.17299H114.726L106.409 13.7602V8.17299Z" fill="#EF3D24"/>
<path fill-rule="evenodd" clip-rule="evenodd" d="M122.352 8.17299H119.536V16.372H122.352V12.7857L128.948 16.372H136.991L138.112 14.9427H145.503L146.624 16.372H150L143.326 8.17299H140.393L133.763 16.3178L125.897 12.0321L133.666 8.17299H129.078L122.352 11.5903V8.17299ZM141.801 10.2L143.991 13.0066H139.611L141.801 10.2Z" fill="#EF3D24"/>
</svg>
